<?xml version="1.0" encoding="us-ascii" standalone="no"?><svg xmlns="http://www.w3.org/2000/svg" xmlns:xlink="http://www.w3.org/1999/xlink" contentStyleType="text/css" height="610px" preserveAspectRatio="none" style="width:479px;height:610px;background:#FFFFFF;" version="1.1" viewBox="0 0 479 610" width="479px" zoomAndPan="magnify"><defs/><g><!--cluster UNEATLANTICO--><g id="cluster_UNEATLANTICO"><path d="M8.5,6.602 L119.5,6.602 A3.75,3.75 0 0 1 122,9.102 L129,31.6699 L469.5,31.6699 A2.5,2.5 0 0 1 472,34.1699 L472,601.102 A2.5,2.5 0 0 1 469.5,603.602 L8.5,603.602 A2.5,2.5 0 0 1 6,601.102 L6,9.102 A2.5,2.5 0 0 1 8.5,6.602 " fill="none" style="stroke:#000000;stroke-width:1.5;"/><line style="stroke:#000000;stroke-width:1.5;" x1="6" x2="129" y1="31.6699" y2="31.6699"/><text fill="#000000" font-family="sans-serif" font-size="14" font-weight="bold" lengthAdjust="spacing" textLength="110" x="10" y="23.5679">UNEATLANTICO</text></g><!--class Titulacion--><g id="elem_Titulacion"><rect codeLine="3" fill="#F1F1F1" height="67.0679" id="Titulacion" rx="2.5" ry="2.5" style="stroke:#181818;stroke-width:0.5;" width="98" x="348" y="209.602"/><ellipse cx="363" cy="225.602" fill="#ADD1B2" rx="11" ry="11" style="stroke:#181818;stroke-width:1.0;"/><path d="M365.9688,231.2426 Q365.3906,231.5395 364.75,231.6801 Q364.1094,231.8364 363.4063,231.8364 Q360.9063,231.8364 359.5781,230.1957 Q358.2656,228.5395 358.2656,225.4145 Q358.2656,222.2895 359.5781,220.6332 Q360.9063,218.977 363.4063,218.977 Q364.1094,218.977 364.75,219.1332 Q365.4063,219.2895 365.9688,219.5864 L365.9688,222.3051 Q365.3438,221.727 364.75,221.4614 Q364.1563,221.1801 363.5313,221.1801 Q362.1875,221.1801 361.5,222.2582 Q360.8125,223.3207 360.8125,225.4145 Q360.8125,227.5082 361.5,228.5864 Q362.1875,229.6489 363.5313,229.6489 Q364.1563,229.6489 364.75,229.3832 Q365.3438,229.102 365.9688,228.5239 L365.9688,231.2426 Z " fill="#000000"/><text fill="#000000" font-family="sans-serif" font-size="14" lengthAdjust="spacing" textLength="66" x="377" y="231.034">Titulacion</text><line style="stroke:#181818;stroke-width:0.5;" x1="349" x2="445" y1="241.602" y2="241.602"/><text fill="#000000" font-family="sans-serif" font-size="14" lengthAdjust="spacing" textLength="37" x="354" y="260.5679">curso</text><line style="stroke:#181818;stroke-width:0.5;" x1="349" x2="445" y1="268.6699" y2="268.6699"/></g><!--class Departamento--><g id="elem_Departamento"><rect codeLine="7" fill="#F1F1F1" height="67.0679" id="Departamento" rx="2.5" ry="2.5" style="stroke:#181818;stroke-width:0.5;" width="134" x="22" y="365.102"/><ellipse cx="39.25" cy="381.102" fill="#ADD1B2" rx="11" ry="11" style="stroke:#181818;stroke-width:1.0;"/><path d="M42.2188,386.7426 Q41.6406,387.0395 41,387.1801 Q40.3594,387.3364 39.6563,387.3364 Q37.1563,387.3364 35.8281,385.6957 Q34.5156,384.0395 34.5156,380.9145 Q34.5156,377.7895 35.8281,376.1332 Q37.1563,374.477 39.6563,374.477 Q40.3594,374.477 41,374.6332 Q41.6563,374.7895 42.2188,375.0864 L42.2188,377.8051 Q41.5938,377.227 41,376.9614 Q40.4063,376.6801 39.7813,376.6801 Q38.4375,376.6801 37.75,377.7582 Q37.0625,378.8207 37.0625,380.9145 Q37.0625,383.0082 37.75,384.0864 Q38.4375,385.1489 39.7813,385.1489 Q40.4063,385.1489 41,384.8832 Q41.5938,384.602 42.2188,384.0239 L42.2188,386.7426 Z " fill="#000000"/><text fill="#000000" font-family="sans-serif" font-size="14" lengthAdjust="spacing" textLength="97" x="53.75" y="386.534">Departamento</text><line style="stroke:#181818;stroke-width:0.5;" x1="23" x2="155" y1="397.102" y2="397.102"/><text fill="#000000" font-family="sans-serif" font-size="14" lengthAdjust="spacing" textLength="122" x="28" y="416.0679">jefeDepartamento</text><line style="stroke:#181818;stroke-width:0.5;" x1="23" x2="155" y1="424.1699" y2="424.1699"/></g><!--class Profesor--><g id="elem_Profesor"><rect codeLine="12" fill="#F1F1F1" height="105.2038" id="Profesor" rx="2.5" ry="2.5" style="stroke:#181818;stroke-width:0.5;" width="88" x="196" y="44.602"/><ellipse cx="211" cy="60.602" fill="#ADD1B2" rx="11" ry="11" style="stroke:#181818;stroke-width:1.0;"/><path d="M213.9688,66.2426 Q213.3906,66.5395 212.75,66.6801 Q212.1094,66.8364 211.4063,66.8364 Q208.9063,66.8364 207.5781,65.1957 Q206.2656,63.5395 206.2656,60.4145 Q206.2656,57.2895 207.5781,55.6332 Q208.9063,53.977 211.4063,53.977 Q212.1094,53.977 212.75,54.1332 Q213.4063,54.2895 213.9688,54.5864 L213.9688,57.3051 Q213.3438,56.727 212.75,56.4614 Q212.1563,56.1801 211.5313,56.1801 Q210.1875,56.1801 209.5,57.2582 Q208.8125,58.3207 208.8125,60.4145 Q208.8125,62.5082 209.5,63.5864 Q210.1875,64.6489 211.5313,64.6489 Q212.1563,64.6489 212.75,64.3832 Q213.3438,64.102 213.9688,63.5239 L213.9688,66.2426 Z " fill="#000000"/><text fill="#000000" font-family="sans-serif" font-size="14" lengthAdjust="spacing" textLength="56" x="225" y="66.034">Profesor</text><line style="stroke:#181818;stroke-width:0.5;" x1="197" x2="283" y1="76.602" y2="76.602"/><text fill="#000000" font-family="sans-serif" font-size="14" lengthAdjust="spacing" textLength="63" x="202" y="95.5679">titulaci&#243;n</text><text fill="#000000" font-family="sans-serif" font-size="14" lengthAdjust="spacing" textLength="63" x="202" y="114.6358">categor&#237;a</text><text fill="#000000" font-family="sans-serif" font-size="14" lengthAdjust="spacing" textLength="33" x="202" y="133.7038">ECTS</text><line style="stroke:#181818;stroke-width:0.5;" x1="197" x2="283" y1="141.8057" y2="141.8057"/></g><!--class Contrato--><g id="elem_Contrato"><rect codeLine="18" fill="#F1F1F1" height="48" id="Contrato" rx="2.5" ry="2.5" style="stroke:#181818;stroke-width:0.5;" width="90" x="71" y="73.102"/><ellipse cx="86" cy="89.102" fill="#EB937F" rx="11" ry="11" style="stroke:#181818;stroke-width:1.0;"/><path d="M90.1094,95.102 L82.3906,95.102 L82.3906,82.7114 L90.1094,82.7114 L90.1094,84.8676 L84.8438,84.8676 L84.8438,87.5395 L89.6094,87.5395 L89.6094,89.6957 L84.8438,89.6957 L84.8438,92.9457 L90.1094,92.9457 L90.1094,95.102 Z " fill="#000000"/><text fill="#000000" font-family="sans-serif" font-size="14" lengthAdjust="spacing" textLength="58" x="100" y="94.534">Contrato</text><line style="stroke:#181818;stroke-width:0.5;" x1="72" x2="160" y1="105.102" y2="105.102"/><line style="stroke:#181818;stroke-width:0.5;" x1="72" x2="160" y1="113.102" y2="113.102"/></g><!--class Experiencia--><g id="elem_Experiencia"><rect codeLine="21" fill="#F1F1F1" height="48" id="Experiencia" rx="2.5" ry="2.5" style="stroke:#181818;stroke-width:0.5;" width="110" x="319" y="73.102"/><ellipse cx="334" cy="89.102" fill="#EB937F" rx="11" ry="11" style="stroke:#181818;stroke-width:1.0;"/><path d="M338.1094,95.102 L330.3906,95.102 L330.3906,82.7114 L338.1094,82.7114 L338.1094,84.8676 L332.8438,84.8676 L332.8438,87.5395 L337.6094,87.5395 L337.6094,89.6957 L332.8438,89.6957 L332.8438,92.9457 L338.1094,92.9457 L338.1094,95.102 Z " fill="#000000"/><text fill="#000000" font-family="sans-serif" font-size="14" lengthAdjust="spacing" textLength="78" x="348" y="94.534">Experiencia</text><line style="stroke:#181818;stroke-width:0.5;" x1="320" x2="428" y1="105.102" y2="105.102"/><line style="stroke:#181818;stroke-width:0.5;" x1="320" x2="428" y1="113.102" y2="113.102"/></g><!--class Asignatura--><g id="elem_Asignatura"><rect codeLine="23" fill="#F1F1F1" height="124.2717" id="Asignatura" rx="2.5" ry="2.5" style="stroke:#181818;stroke-width:0.5;" width="112" x="191" y="336.602"/><ellipse cx="208.7" cy="352.602" fill="#ADD1B2" rx="11" ry="11" style="stroke:#181818;stroke-width:1.0;"/><path d="M211.6688,358.2426 Q211.0906,358.5395 210.45,358.6801 Q209.8094,358.8364 209.1063,358.8364 Q206.6063,358.8364 205.2781,357.1957 Q203.9656,355.5395 203.9656,352.4145 Q203.9656,349.2895 205.2781,347.6332 Q206.6063,345.977 209.1063,345.977 Q209.8094,345.977 210.45,346.1332 Q211.1063,346.2895 211.6688,346.5864 L211.6688,349.3051 Q211.0438,348.727 210.45,348.4614 Q209.8563,348.1801 209.2313,348.1801 Q207.8875,348.1801 207.2,349.2582 Q206.5125,350.3207 206.5125,352.4145 Q206.5125,354.5082 207.2,355.5864 Q207.8875,356.6489 209.2313,356.6489 Q209.8563,356.6489 210.45,356.3832 Q211.0438,356.102 211.6688,355.5239 L211.6688,358.2426 Z " fill="#000000"/><text fill="#000000" font-family="sans-serif" font-size="14" lengthAdjust="spacing" textLength="74" x="223.3" y="358.034">Asignatura</text><line style="stroke:#181818;stroke-width:0.5;" x1="192" x2="302" y1="368.602" y2="368.602"/><text fill="#000000" font-family="sans-serif" font-size="14" lengthAdjust="spacing" textLength="62" x="197" y="387.5679">semestre</text><text fill="#000000" font-family="sans-serif" font-size="14" lengthAdjust="spacing" textLength="100" x="197" y="406.6358">codigoCampus</text><text fill="#000000" font-family="sans-serif" font-size="14" lengthAdjust="spacing" textLength="26" x="197" y="425.7038">tipo</text><text fill="#000000" font-family="sans-serif" font-size="14" lengthAdjust="spacing" textLength="33" x="197" y="444.7717">ECTS</text><line style="stroke:#181818;stroke-width:0.5;" x1="192" x2="302" y1="452.8736" y2="452.8736"/></g><!--class PlanEstudios--><g id="elem_PlanEstudios"><rect codeLine="31" fill="#F1F1F1" height="48" id="PlanEstudios" rx="2.5" ry="2.5" style="stroke:#181818;stroke-width:0.5;" width="118" x="338" y="374.602"/><ellipse cx="353" cy="390.602" fill="#ADD1B2" rx="11" ry="11" style="stroke:#181818;stroke-width:1.0;"/><path d="M355.9688,396.2426 Q355.3906,396.5395 354.75,396.6801 Q354.1094,396.8364 353.4063,396.8364 Q350.9063,396.8364 349.5781,395.1957 Q348.2656,393.5395 348.2656,390.4145 Q348.2656,387.2895 349.5781,385.6332 Q350.9063,383.977 353.4063,383.977 Q354.1094,383.977 354.75,384.1332 Q355.4063,384.2895 355.9688,384.5864 L355.9688,387.3051 Q355.3438,386.727 354.75,386.4614 Q354.1563,386.1801 353.5313,386.1801 Q352.1875,386.1801 351.5,387.2582 Q350.8125,388.3207 350.8125,390.4145 Q350.8125,392.5082 351.5,393.5864 Q352.1875,394.6489 353.5313,394.6489 Q354.1563,394.6489 354.75,394.3832 Q355.3438,394.102 355.9688,393.5239 L355.9688,396.2426 Z " fill="#000000"/><text fill="#000000" font-family="sans-serif" font-size="14" lengthAdjust="spacing" textLength="86" x="367" y="396.034">PlanEstudios</text><line style="stroke:#181818;stroke-width:0.5;" x1="339" x2="455" y1="406.602" y2="406.602"/><line style="stroke:#181818;stroke-width:0.5;" x1="339" x2="455" y1="414.602" y2="414.602"/></g><!--class MemoriaAcademica--><g id="elem_MemoriaAcademica"><rect codeLine="34" fill="#F1F1F1" height="67.0679" id="MemoriaAcademica" rx="2.5" ry="2.5" style="stroke:#181818;stroke-width:0.5;" width="165" x="164.5" y="520.602"/><ellipse cx="179.5" cy="536.602" fill="#ADD1B2" rx="11" ry="11" style="stroke:#181818;stroke-width:1.0;"/><path d="M182.4688,542.2426 Q181.8906,542.5395 181.25,542.6801 Q180.6094,542.8364 179.9063,542.8364 Q177.4063,542.8364 176.0781,541.1957 Q174.7656,539.5395 174.7656,536.4145 Q174.7656,533.2895 176.0781,531.6332 Q177.4063,529.977 179.9063,529.977 Q180.6094,529.977 181.25,530.1332 Q181.9063,530.2895 182.4688,530.5864 L182.4688,533.3051 Q181.8438,532.727 181.25,532.4614 Q180.6563,532.1801 180.0313,532.1801 Q178.6875,532.1801 178,533.2582 Q177.3125,534.3207 177.3125,536.4145 Q177.3125,538.5082 178,539.5864 Q178.6875,540.6489 180.0313,540.6489 Q180.6563,540.6489 181.25,540.3832 Q181.8438,540.102 182.4688,539.5239 L182.4688,542.2426 Z " fill="#000000"/><text fill="#000000" font-family="sans-serif" font-size="14" lengthAdjust="spacing" textLength="133" x="193.5" y="542.034">MemoriaAcademica</text><line style="stroke:#181818;stroke-width:0.5;" x1="165.5" x2="328.5" y1="552.602" y2="552.602"/><text fill="#000000" font-family="sans-serif" font-size="14" lengthAdjust="spacing" textLength="25" x="170.5" y="571.5679">a&#241;o</text><line style="stroke:#181818;stroke-width:0.5;" x1="165.5" x2="328.5" y1="579.6699" y2="579.6699"/></g><!--class CargaAcademica--><g id="elem_CargaAcademica"><rect codeLine="38" fill="#F1F1F1" height="67.0679" id="CargaAcademica" rx="2.5" ry="2.5" style="stroke:#181818;stroke-width:0.5;" width="145" x="167.5" y="209.602"/><ellipse cx="182.5" cy="225.602" fill="#ADD1B2" rx="11" ry="11" style="stroke:#181818;stroke-width:1.0;"/><path d="M185.4688,231.2426 Q184.8906,231.5395 184.25,231.6801 Q183.6094,231.8364 182.9063,231.8364 Q180.4063,231.8364 179.0781,230.1957 Q177.7656,228.5395 177.7656,225.4145 Q177.7656,222.2895 179.0781,220.6332 Q180.4063,218.977 182.9063,218.977 Q183.6094,218.977 184.25,219.1332 Q184.9063,219.2895 185.4688,219.5864 L185.4688,222.3051 Q184.8438,221.727 184.25,221.4614 Q183.6563,221.1801 183.0313,221.1801 Q181.6875,221.1801 181,222.2582 Q180.3125,223.3207 180.3125,225.4145 Q180.3125,227.5082 181,228.5864 Q181.6875,229.6489 183.0313,229.6489 Q183.6563,229.6489 184.25,229.3832 Q184.8438,229.102 185.4688,228.5239 L185.4688,231.2426 Z " fill="#000000"/><text fill="#000000" font-family="sans-serif" font-size="14" lengthAdjust="spacing" textLength="113" x="196.5" y="231.034">CargaAcademica</text><line style="stroke:#181818;stroke-width:0.5;" x1="168.5" x2="311.5" y1="241.602" y2="241.602"/><text fill="#000000" font-family="sans-serif" font-size="14" lengthAdjust="spacing" textLength="37" x="173.5" y="260.5679">curso</text><line style="stroke:#181818;stroke-width:0.5;" x1="168.5" x2="311.5" y1="268.6699" y2="268.6699"/></g><!--link Profesor to Departamento--><g id="link_Profesor_Departamento"><path codeLine="43" d="M195.99,144.742 C179.82,163.752 162.44,186.632 150,209.602 C122.38,260.592 105.979,320.3433 97.119,359.0433 " fill="none" id="Profesor-to-Departamento" style="stroke:#181818;stroke-width:1.0;"/><polygon fill="#181818" points="95.78,364.892,101.6876,357.0116,96.8958,360.0181,93.8894,355.2263,95.78,364.892" style="stroke:#181818;stroke-width:1.0;"/></g><!--link Profesor to CargaAcademica--><g id="link_Profesor_CargaAcademica"><path codeLine="44" d="M240,149.682 C240,169.532 240,185.642 240,203.262 " fill="none" id="Profesor-to-CargaAcademica" style="stroke:#181818;stroke-width:1.0;"/><polygon fill="#181818" points="240,209.262,244,200.262,240,204.262,236,200.262,240,209.262" style="stroke:#181818;stroke-width:1.0;"/></g><!--link CargaAcademica to Asignatura--><g id="link_CargaAcademica_Asignatura"><path codeLine="45" d="M241.48,276.652 C242.28,294.082 243.0049,310.1183 243.9449,330.5983 " fill="none" id="CargaAcademica-to-Asignatura" style="stroke:#181818;stroke-width:1.0;"/><polygon fill="#181818" points="244.22,336.592,247.8031,327.418,243.9907,331.5972,239.8116,327.7848,244.22,336.592" style="stroke:#181818;stroke-width:1.0;"/></g><!--reverse link Asignatura to PlanEstudios--><g id="link_Asignatura_PlanEstudios"><path codeLine="46" d="M309.25,398.602 C320.72,398.602 326.2,398.602 337.67,398.602 " fill="none" id="Asignatura-backto-PlanEstudios" style="stroke:#181818;stroke-width:1.0;"/><polygon fill="#181818" points="303.25,398.602,312.25,402.602,308.25,398.602,312.25,394.602,303.25,398.602" style="stroke:#181818;stroke-width:1.0;"/></g><!--link Departamento to Asignatura--><g id="link_Departamento_Asignatura"><path codeLine="47" d="M156.27,398.602 C167.73,398.602 173.19,398.602 184.65,398.602 " fill="none" id="Departamento-to-Asignatura" style="stroke:#181818;stroke-width:1.0;"/><polygon fill="#181818" points="190.65,398.602,181.65,394.602,185.65,398.602,181.65,402.602,190.65,398.602" style="stroke:#181818;stroke-width:1.0;"/></g><!--link Titulacion to PlanEstudios--><g id="link_Titulacion_PlanEstudios"><path codeLine="48" d="M397,276.652 C397,306.052 397,342.562 397,368.572 " fill="none" id="Titulacion-to-PlanEstudios" style="stroke:#181818;stroke-width:1.0;"/><polygon fill="#181818" points="397,374.572,401,365.572,397,369.572,393,365.572,397,374.572" style="stroke:#181818;stroke-width:1.0;"/></g><!--link Asignatura to MemoriaAcademica--><g id="link_Asignatura_MemoriaAcademica"><path codeLine="49" d="M247,460.712 C247,481.112 247,497.052 247,514.432 " fill="none" id="Asignatura-to-MemoriaAcademica" style="stroke:#181818;stroke-width:1.0;"/><polygon fill="#181818" points="247,520.432,251,511.432,247,515.432,243,511.432,247,520.432" style="stroke:#181818;stroke-width:1.0;"/></g><!--link Profesor to Titulacion--><g id="link_Profesor_Titulacion"><path codeLine="51" d="M284.15,138.602 C308.55,160.972 338.46,188.412 361.36,209.412 " fill="none" id="Profesor-Titulacion" style="stroke:#181818;stroke-width:1.0;stroke-dasharray:7.0,7.0;"/></g><!--link Contrato to Profesor--><g id="link_Contrato_Profesor"><path codeLine="52" d="M161.05,97.102 C172.66,97.102 184.28,97.102 195.9,97.102 " fill="none" id="Contrato-Profesor" style="stroke:#181818;stroke-width:1.0;"/></g><!--link Profesor to Experiencia--><g id="link_Profesor_Experiencia"><path codeLine="53" d="M284.23,97.102 C295.8,97.102 307.37,97.102 318.95,97.102 " fill="none" id="Profesor-Experiencia" style="stroke:#181818;stroke-width:1.0;"/></g><!--SRC=[TL91JiGm3Bpd5Vb0zmb8LUa12HOaoWEir5i5shXo4WcfuaaS44_enoZTxiPXbzpi6NliSKOmRz2XVjdNPNDVxfkxwd5IIY_FzE2zRco8FHXBRbgpAnBPqnfzIEejZi011dI14laL3oWHTLdun7H0JvoAmgOwVxka2W4xulaJpgcwQfvbkzh5GLVa0iDf18dKxoEoHMSiIFdIsyv1Y0pRvh_Fuu0-C2PvQcr75GnZz6BEaVwTPbkk1rVx45jBVhg47t0Wjb0QQ76m1f87C7zTCRa2xgwnvKsMWfEbkYXkiiC8f5sWl9tAmoCbsQFaBhheSr2gw1nAd-ZOKlPHYNS4_peYbjdjn7yKc_J5-UeYoqL-yHy0]--></g></svg>